<svg width="51" height="51" viewBox="0 0 51 51" fill="none" xmlns="http://www.w3.org/2000/svg">
<rect width="51" height="51" rx="15" fill="white"/>
<path d="M17.5625 25.0625H36.3125C36.5611 25.0625 36.7996 25.1613 36.9754 25.3371C37.1512 25.5129 37.25 25.7514 37.25 26C37.25 26.2486 37.1512 26.4871 36.9754 26.6629C36.7996 26.8387 36.5611 26.9375 36.3125 26.9375H17.5625C17.3139 26.9375 17.0754 26.8387 16.8996 26.6629C16.7238 26.4871 16.625 26.2486 16.625 26C16.625 25.7514 16.7238 25.5129 16.8996 25.3371C17.0754 25.1613 17.3139 25.0625 17.5625 25.0625Z" fill="#242424"/>
<path d="M17.9508 26.0002L25.7265 33.774C25.9025 33.95 26.0014 34.1888 26.0014 34.4377C26.0014 34.6867 25.9025 34.9254 25.7265 35.1015C25.5504 35.2775 25.3117 35.3764 25.0627 35.3764C24.8138 35.3764 24.575 35.2775 24.399 35.1015L15.9615 26.664C15.8742 26.5769 15.8049 26.4734 15.7576 26.3595C15.7104 26.2456 15.686 26.1235 15.686 26.0002C15.686 25.8769 15.7104 25.7548 15.7576 25.6409C15.8049 25.527 15.8742 25.4235 15.9615 25.3365L24.399 16.899C24.575 16.7229 24.8138 16.624 25.0627 16.624C25.3117 16.624 25.5504 16.7229 25.7265 16.899C25.9025 17.075 26.0014 17.3138 26.0014 17.5627C26.0014 17.8117 25.9025 18.0504 25.7265 18.2265L17.9508 26.0002Z" fill="#242424"/>
</svg>
