<svg width="35" height="35" viewBox="0 0 35 35" fill="none" xmlns="http://www.w3.org/2000/svg">
<g filter="url(#filter0_b_151_1093)">
<circle cx="17.5" cy="17.5" r="17.5" fill="#022873" fill-opacity="0.08"/>
</g>
<path d="M26.0938 11.3477H22.7734L21.9824 9.13086C21.9278 8.97917 21.8276 8.84805 21.6957 8.75541C21.5637 8.66278 21.4064 8.61314 21.2451 8.61328H13.7549C13.4253 8.61328 13.1299 8.8208 13.02 9.13086L12.2266 11.3477H8.90625C7.82715 11.3477 6.95312 12.2217 6.95312 13.3008V24.4336C6.95312 25.5127 7.82715 26.3867 8.90625 26.3867H26.0938C27.1729 26.3867 28.0469 25.5127 28.0469 24.4336V13.3008C28.0469 12.2217 27.1729 11.3477 26.0938 11.3477ZM17.5 22.4805C15.3418 22.4805 13.5938 20.7324 13.5938 18.5742C13.5938 16.416 15.3418 14.668 17.5 14.668C19.6582 14.668 21.4062 16.416 21.4062 18.5742C21.4062 20.7324 19.6582 22.4805 17.5 22.4805ZM15.1562 18.5742C15.1562 19.1958 15.4032 19.792 15.8427 20.2315C16.2823 20.671 16.8784 20.918 17.5 20.918C18.1216 20.918 18.7177 20.671 19.1573 20.2315C19.5968 19.792 19.8438 19.1958 19.8438 18.5742C19.8438 17.9526 19.5968 17.3565 19.1573 16.9169C18.7177 16.4774 18.1216 16.2305 17.5 16.2305C16.8784 16.2305 16.2823 16.4774 15.8427 16.9169C15.4032 17.3565 15.1562 17.9526 15.1562 18.5742Z" fill="#022873"/>
<defs>
<filter id="filter0_b_151_1093" x="-12" y="-12" width="59" height="59" filterUnits="userSpaceOnUse" color-interpolation-filters="sRGB">
<feFlood flood-opacity="0" result="BackgroundImageFix"/>
<feGaussianBlur in="BackgroundImageFix" stdDeviation="6"/>
<feComposite in2="SourceAlpha" operator="in" result="effect1_backgroundBlur_151_1093"/>
<feBlend mode="normal" in="SourceGraphic" in2="effect1_backgroundBlur_151_1093" result="shape"/>
</filter>
</defs>
</svg>
