<svg width="46" height="47" viewBox="0 0 46 47" fill="none" xmlns="http://www.w3.org/2000/svg">
<path d="M4.72925 46.2632C3.48255 46.2632 2.41568 45.8197 1.52864 44.9327C0.640079 44.0441 0.195801 42.9765 0.195801 41.7298V14.5291C0.195801 13.2824 0.640079 12.2155 1.52864 11.3284C2.41568 10.4399 3.48255 9.99561 4.72925 9.99561H11.8694L16.0629 5.46216H29.6632V9.99561H18.0463L13.9095 14.5291H4.72925V41.7298H40.9969V16.7958H45.5303V41.7298C45.5303 42.9765 45.0868 44.0441 44.1997 44.9327C43.3112 45.8197 42.2436 46.2632 40.9969 46.2632H4.72925ZM42.4702 14.5291C42.4702 11.5823 41.4502 9.08892 39.4102 7.04887C37.3701 5.00882 34.8767 3.98879 31.93 3.98879V0.928711C35.7078 0.928711 38.919 2.25097 41.5635 4.89548C44.2081 7.53999 45.5303 10.7512 45.5303 14.5291H42.4702ZM36.4634 14.5291C36.4634 13.2824 36.0199 12.2155 35.1328 11.3284C34.2443 10.4399 33.1767 9.99561 31.93 9.99561V6.93553C34.0078 6.93553 35.7736 7.67222 37.2273 9.14559C38.6825 10.619 39.4479 12.4135 39.5235 14.5291H36.4634ZM22.8631 38.3297C25.6965 38.3297 28.1052 37.3384 30.0894 35.3557C32.072 33.3716 33.0633 30.9628 33.0633 28.1294C33.0633 25.296 32.072 22.8872 30.0894 20.9031C28.1052 18.9205 25.6965 17.9292 22.8631 17.9292C20.0296 17.9292 17.6209 18.9205 15.6367 20.9031C13.6541 22.8872 12.6628 25.296 12.6628 28.1294C12.6628 30.9628 13.6541 33.3716 15.6367 35.3557C17.6209 37.3384 20.0296 38.3297 22.8631 38.3297ZM22.8631 33.7962C21.2763 33.7962 19.9352 33.2484 18.8396 32.1529C17.744 31.0573 17.1962 29.7161 17.1962 28.1294C17.1962 26.5427 17.744 25.2016 18.8396 24.106C19.9352 23.0104 21.2763 22.4626 22.8631 22.4626C24.4498 22.4626 25.7909 23.0104 26.8865 24.106C27.9821 25.2016 28.5299 26.5427 28.5299 28.1294C28.5299 29.7161 27.9821 31.0573 26.8865 32.1529C25.7909 33.2484 24.4498 33.7962 22.8631 33.7962Z" fill="#022873"/>
</svg>
