<svg width="50" height="50" viewBox="0 0 50 50" fill="none" xmlns="http://www.w3.org/2000/svg">
<rect width="50" height="50" rx="15" fill="#242424"/>
<path d="M32.2364 19.8145C32.2364 15.8008 28.9844 12.5488 24.9708 12.5488C20.9571 12.5488 17.7051 15.8008 17.7051 19.8145C17.7051 22.2402 18.8946 24.3906 20.7227 25.709C20.711 25.7148 20.7022 25.7178 20.6963 25.7207C19.3868 26.2744 18.212 27.0684 17.2012 28.082C16.1905 29.0928 15.3995 30.2705 14.8458 31.583C14.3038 32.8662 14.0137 34.2285 13.9844 35.6289C13.9815 35.7607 14.087 35.8691 14.2188 35.8691H15.9737C16.0997 35.8691 16.2051 35.7666 16.2081 35.6406C16.2667 33.3789 17.1719 31.2607 18.7745 29.6553C20.4297 27.9941 22.627 27.0801 24.9708 27.0801C28.9844 27.0801 32.2364 23.8281 32.2364 19.8145ZM24.9708 24.8535C22.1876 24.8535 19.9317 22.5977 19.9317 19.8145C19.9317 17.0312 22.1876 14.7754 24.9708 14.7754C27.754 14.7754 30.0098 17.0312 30.0098 19.8145C30.0098 22.5977 27.754 24.8535 24.9708 24.8535ZM28.0469 31.3281H35.7813C35.9102 31.3281 36.0157 31.2227 36.0157 31.0938V29.4531C36.0157 29.3242 35.9102 29.2188 35.7813 29.2188H30.6104L31.9932 27.458C32.0255 27.417 32.043 27.3643 32.043 27.3145C32.043 27.1855 31.9376 27.0801 31.8087 27.0801H29.6817C29.5381 27.0801 29.4034 27.1475 29.3126 27.2588L27.3057 29.8105C27.1768 29.9746 27.1065 30.1797 27.1065 30.3906C27.1094 30.9092 27.5284 31.3281 28.0469 31.3281V31.3281ZM35.0782 33.2031H27.3438C27.2149 33.2031 27.1094 33.3086 27.1094 33.4375V35.0781C27.1094 35.207 27.2149 35.3125 27.3438 35.3125H32.5147L31.1319 37.0732C31.0997 37.1143 31.0821 37.167 31.0821 37.2168C31.0821 37.3457 31.1876 37.4512 31.3165 37.4512H33.4434C33.587 37.4512 33.7217 37.3838 33.8126 37.2725L35.8194 34.7207C35.9483 34.5566 36.0186 34.3516 36.0186 34.1406C36.0157 33.6221 35.5967 33.2031 35.0782 33.2031V33.2031Z" fill="white"/>
</svg>
