<svg width="50" height="50" viewBox="0 0 50 50" fill="none" xmlns="http://www.w3.org/2000/svg">
<rect width="50" height="50" rx="15" fill="#242424"/>
<path d="M35.3125 25.1757H24.8242V14.6874C24.8242 14.5585 24.7188 14.453 24.5899 14.453H23.8281C22.2892 14.4505 20.7649 14.7523 19.343 15.3411C17.9211 15.9299 16.6297 16.794 15.543 17.8837C14.4728 18.9506 13.6201 20.2152 13.0322 21.6073C12.4205 23.0512 12.1067 24.6037 12.1094 26.1718C12.1069 27.7108 12.4087 29.235 12.9974 30.6569C13.5862 32.0788 14.4503 33.3703 15.5401 34.4569C16.6153 35.5321 17.8692 36.3788 19.2637 36.9677C20.7076 37.5794 22.2601 37.8933 23.8281 37.8905C25.3671 37.8931 26.8914 37.5913 28.3133 37.0025C29.7352 36.4137 31.0266 35.5496 32.1133 34.4599C33.1885 33.3847 34.0352 32.1308 34.624 30.7362C35.2357 29.2924 35.5496 27.7399 35.5469 26.1718V25.4101C35.5469 25.2812 35.4414 25.1757 35.3125 25.1757ZM30.6748 33.08C29.7676 33.9801 28.6918 34.6924 27.5088 35.176C26.3259 35.6596 25.0592 35.9051 23.7813 35.8984C21.2002 35.8866 18.7744 34.8759 16.9492 33.0507C15.1123 31.2138 14.1016 28.7704 14.1016 26.1718C14.1016 23.5732 15.1123 21.1298 16.9492 19.2929C18.5488 17.6933 20.6084 16.7177 22.832 16.495V27.1679H33.5049C33.2793 29.4032 32.2949 31.4745 30.6748 33.08ZM37.8906 23.5468L37.8145 22.7206C37.5654 20.0224 36.3672 17.4765 34.4395 15.5546C32.5104 13.6292 29.9697 12.4376 27.2559 12.1855L26.4268 12.1093C26.2891 12.0976 26.1719 12.203 26.1719 12.3407V23.5937C26.1719 23.7226 26.2774 23.828 26.4063 23.828L37.6563 23.7987C37.794 23.7987 37.9024 23.6816 37.8906 23.5468ZM28.1582 21.8417V14.3241C30.0037 14.7104 31.6973 15.6244 33.0332 16.955C34.3721 18.2909 35.2891 19.9901 35.6699 21.8212L28.1582 21.8417Z" fill="white"/>
</svg>
