<svg width="50" height="50" viewBox="0 0 50 50" fill="none" xmlns="http://www.w3.org/2000/svg">
<circle cx="25" cy="25" r="25" fill="#127D10" fill-opacity="0.08"/>
<path d="M37.6393 18.0848L28.2643 12.9286C28.1259 12.8524 27.9705 12.8125 27.8125 12.8125C27.6545 12.8125 27.499 12.8524 27.3606 12.9286L17.9856 18.0848C17.8386 18.1658 17.716 18.2847 17.6306 18.4291C17.5453 18.5736 17.5002 18.7383 17.5002 18.9061C17.5002 19.0739 17.5453 19.2386 17.6306 19.3831C17.716 19.5275 17.8386 19.6464 17.9856 19.7273L26.875 24.6164V34.6655L24.0287 33.0998L23.125 34.7414L27.3606 37.0711C27.499 37.1474 27.6544 37.1874 27.8125 37.1874C27.9705 37.1874 28.1259 37.1474 28.2643 37.0711L37.6393 31.9148C37.7864 31.8339 37.909 31.7151 37.9944 31.5706C38.0798 31.4262 38.1249 31.2614 38.125 31.0936V18.9061C38.1249 18.7383 38.0798 18.5735 37.9944 18.4291C37.909 18.2846 37.7864 18.1657 37.6393 18.0848ZM27.8125 14.8205L35.2421 18.9061L27.8125 22.9917L20.3828 18.9061L27.8125 14.8205ZM36.25 30.5395L28.75 34.6645V24.6155L36.25 20.4905V30.5395Z" fill="#127D10"/>
<path d="M19.375 25H11.875V23.125H19.375V25ZM21.25 32.5H13.75V30.625H21.25V32.5ZM23.125 28.75H15.625V26.875H23.125V28.75Z" fill="#127D10"/>
</svg>
