<svg width="30" height="30" viewBox="0 0 30 30" fill="none" xmlns="http://www.w3.org/2000/svg">
<g clip-path="url(#clip0_221_1652)">
<path d="M3.42273 15.9277H19.6663C20.1848 15.9277 20.6038 15.5077 20.6038 14.9902C20.6038 14.4727 20.1848 14.0527 19.6663 14.0527H3.48133L6.87273 10.6612C7.23883 10.2952 7.23883 9.70172 6.87273 9.33563C6.50664 8.96953 5.9132 8.96953 5.54711 9.33563L0.00976562 15.0192L5.54711 20.7028C5.73039 20.8861 5.96992 20.9775 6.20992 20.9775C6.44992 20.9775 6.68945 20.8861 6.87273 20.7028C7.23883 20.3367 7.23883 19.7433 6.87273 19.3772L3.42273 15.9277ZM28.1151 0H12.1775C11.1416 0 10.3025 0.839531 10.3025 1.875V10.3125H12.1897V3.01828C12.1897 2.39203 12.6979 1.88391 13.3241 1.88391H26.939C27.5656 1.88391 28.0733 2.39203 28.0733 3.01828L28.1028 26.9916C28.1028 27.6178 27.5952 28.1259 26.9685 28.1259H13.3246C12.6984 28.1259 12.1902 27.6178 12.1902 26.9916V19.6566L10.303 19.6589V28.125C10.303 29.1605 11.1421 30 12.178 30H28.1151C29.151 30 29.9905 29.1605 29.9905 28.125V1.875C29.9901 0.839531 29.1506 0 28.1151 0H28.1151Z" fill="#242424"/>
</g>
<defs>
<clipPath id="clip0_221_1652">
<rect width="30" height="30" fill="white"/>
</clipPath>
</defs>
</svg>
