<svg width="50" height="50" viewBox="0 0 50 50" fill="none" xmlns="http://www.w3.org/2000/svg">
<rect width="50" height="50" rx="15" fill="#F28705"/>
<path d="M14.6875 23.1251C14.4389 23.1251 14.2004 23.0263 14.0246 22.8505C13.8488 22.6747 13.75 22.4362 13.75 22.1876V14.6895C13.75 14.4408 13.8488 14.2024 14.0246 14.0265C14.2004 13.8507 14.4389 13.752 14.6875 13.752H22.1875C22.4361 13.752 22.6746 13.8507 22.8504 14.0265C23.0262 14.2024 23.125 14.4408 23.125 14.6895V22.1876C23.125 22.4362 23.0262 22.6747 22.8504 22.8505C22.6746 23.0263 22.4361 23.1251 22.1875 23.1251H14.6875ZM27.8125 23.1251C27.5639 23.1251 27.3254 23.0263 27.1496 22.8505C26.9738 22.6747 26.875 22.4362 26.875 22.1876V14.6895C26.875 14.4408 26.9738 14.2024 27.1496 14.0265C27.3254 13.8507 27.5639 13.752 27.8125 13.752H35.3106C35.5593 13.752 35.7977 13.8507 35.9735 14.0265C36.1494 14.2024 36.2481 14.4408 36.2481 14.6895V22.1876C36.2481 22.4362 36.1494 22.6747 35.9735 22.8505C35.7977 23.0263 35.5593 23.1251 35.3106 23.1251H27.8125ZM14.6875 36.2501C14.4389 36.2501 14.2004 36.1513 14.0246 35.9755C13.8488 35.7997 13.75 35.5612 13.75 35.3126V27.8126C13.75 27.5639 13.8488 27.3255 14.0246 27.1497C14.2004 26.9739 14.4389 26.8751 14.6875 26.8751H22.1875C22.4361 26.8751 22.6746 26.9739 22.8504 27.1497C23.0262 27.3255 23.125 27.5639 23.125 27.8126V35.3126C23.125 35.5612 23.0262 35.7997 22.8504 35.9755C22.6746 36.1513 22.4361 36.2501 22.1875 36.2501H14.6875ZM27.8125 36.2501C27.5639 36.2501 27.3254 36.1513 27.1496 35.9755C26.9738 35.7997 26.875 35.5612 26.875 35.3126V27.8126C26.875 27.5639 26.9738 27.3255 27.1496 27.1497C27.3254 26.9739 27.5639 26.8751 27.8125 26.8751H35.3106C35.5593 26.8751 35.7977 26.9739 35.9735 27.1497C36.1494 27.3255 36.2481 27.5639 36.2481 27.8126V35.3126C36.2481 35.5612 36.1494 35.7997 35.9735 35.9755C35.7977 36.1513 35.5593 36.2501 35.3106 36.2501H27.8125Z" fill="white"/>
</svg>
