<svg width="50" height="50" viewBox="0 0 50 50" fill="none" xmlns="http://www.w3.org/2000/svg">
<circle cx="25" cy="25" r="25" fill="#F28705" fill-opacity="0.08"/>
<path d="M20 33.75C20.663 33.75 21.2989 33.4866 21.7678 33.0178C22.2366 32.5489 22.5 31.913 22.5 31.25C22.5 30.587 22.2366 29.9511 21.7678 29.4822C21.2989 29.0134 20.663 28.75 20 28.75C19.337 28.75 18.7011 29.0134 18.2322 29.4822C17.7634 29.9511 17.5 30.587 17.5 31.25C17.5 31.913 17.7634 32.5489 18.2322 33.0178C18.7011 33.4866 19.337 33.75 20 33.75V33.75ZM32.5 33.75C33.163 33.75 33.7989 33.4866 34.2678 33.0178C34.7366 32.5489 35 31.913 35 31.25C35 30.587 34.7366 29.9511 34.2678 29.4822C33.7989 29.0134 33.163 28.75 32.5 28.75C31.837 28.75 31.2011 29.0134 30.7322 29.4822C30.2634 29.9511 30 30.587 30 31.25C30 31.913 30.2634 32.5489 30.7322 33.0178C31.2011 33.4866 31.837 33.75 32.5 33.75V33.75Z" stroke="#F28705" stroke-width="1.875" stroke-miterlimit="1.5" stroke-linecap="round" stroke-linejoin="round"/>
<path d="M22.5625 31.25H28.75V18.25C28.75 18.0511 28.671 17.8603 28.5303 17.7197C28.3897 17.579 28.1989 17.5 28 17.5H11.25M17.0625 31.25H14.5C14.4015 31.25 14.304 31.2306 14.213 31.1929C14.122 31.1552 14.0393 31.1 13.9697 31.0303C13.9 30.9607 13.8448 30.878 13.8071 30.787C13.7694 30.696 13.75 30.5985 13.75 30.5V24.375" stroke="#F28705" stroke-width="1.875" stroke-linecap="round"/>
<path d="M12.5 21.25H17.5" stroke="#F28705" stroke-width="1.875" stroke-linecap="round" stroke-linejoin="round"/>
<path d="M28.75 21.25H35.7625C35.9075 21.25 36.0493 21.2921 36.1709 21.3711C36.2925 21.45 36.3885 21.5626 36.4475 21.695L38.685 26.73C38.7276 26.8256 38.7498 26.9291 38.75 27.0337V30.5C38.75 30.5985 38.7306 30.696 38.6929 30.787C38.6552 30.878 38.6 30.9607 38.5303 31.0303C38.4607 31.1 38.378 31.1552 38.287 31.1929C38.196 31.2306 38.0985 31.25 38 31.25H35.625M28.75 31.25H30" stroke="#F28705" stroke-width="1.875" stroke-linecap="round"/>
</svg>
