<svg width="50" height="50" viewBox="0 0 50 50" fill="none" xmlns="http://www.w3.org/2000/svg">
<circle cx="25" cy="25" r="25" fill="#022873" fill-opacity="0.08"/>
<path d="M23.7863 13.1748C24.1576 12.9686 24.5753 12.8604 25 12.8604C25.4247 12.8604 25.8424 12.9686 26.2137 13.1748L35.6075 18.3923C35.8023 18.5006 35.9645 18.659 36.0775 18.851C36.1904 19.0431 36.25 19.2619 36.25 19.4848V29.7785C36.2499 30.2243 36.1306 30.662 35.9044 31.0462C35.6783 31.4304 35.3535 31.7471 34.9638 31.9635L26.2137 36.826C25.8424 37.0322 25.4247 37.1404 25 37.1404C24.5753 37.1404 24.1576 37.0322 23.7863 36.826L15.0362 31.9635C14.6467 31.7472 14.322 31.4307 14.0959 31.0467C13.8697 30.6628 13.7503 30.2254 13.75 29.7798V19.4848C13.75 19.2619 13.8096 19.0431 13.9225 18.851C14.0355 18.659 14.1977 18.5006 14.3925 18.3923L23.7875 13.1748H23.7863Z" stroke="#022873" stroke-width="2.5" stroke-linecap="round" stroke-linejoin="round"/>
<path d="M19.375 15.625L30.625 21.875V26.25M17.5 25.41L21.25 27.5" stroke="#022873" stroke-width="2.5" stroke-linecap="round" stroke-linejoin="round"/>
<path d="M13.75 18.75L25 25M25 25L36.25 18.75M25 25V37.5" stroke="#022873" stroke-width="2.5" stroke-linejoin="round"/>
</svg>
